<svg width="158" height="37" viewBox="0 0 158 37" xmlns="http://www.w3.org/2000/svg"><title>Group 2 Copy 3</title><defs><linearGradient x1="0%" y1="50%" y2="50%" id="a"><stop stop-color="#F66B44" offset="0%"/><stop stop-color="#F35F4D" offset="100%"/></linearGradient></defs><g fill="none" fill-rule="evenodd"><path d="M76 3.402A3.403 3.403 0 0 1 79.404 0h63c1.497 0 3.418.972 4.298 2.18l10.576 14.526c.553.758.548 1.996 0 2.747l-10.576 14.525c-.877 1.205-2.788 2.181-4.297 2.181H79.404A3.408 3.408 0 0 1 76 32.757V3.402zm68.9 17.884c1.933 0 3.5-1.546 3.5-3.452 0-1.907-1.567-3.453-3.5-3.453s-3.5 1.546-3.5 3.453c0 1.906 1.567 3.452 3.5 3.452zM85.377 8.325V27.75h4.08v-5.91h2.306a9.789 9.789 0 0 0 2.897-.473c.9-.296 1.679-.726 2.335-1.29a6.052 6.052 0 0 0 1.561-2.109c.385-.842.577-1.817.577-2.983 0-1.036-.169-1.966-.506-2.789a5.828 5.828 0 0 0-1.435-2.095c-.619-.574-1.374-1.013-2.264-1.318-.891-.305-1.89-.458-2.996-.458h-6.555zm6.358 9.907h-2.279V11.96h2.222c1.088 0 1.918.268 2.49.805.572.537.858 1.313.858 2.331v.028c0 .906-.281 1.65-.844 2.234-.563.582-1.378.874-2.447.874zm15.64-10.018l-7.06 19.536h4.107l1.435-4.218h6.78l1.462 4.218h4.22l-7.061-19.536h-3.882zm4.023 11.766h-4.304l2.166-6.327 2.138 6.327zm14.038.111v7.659h4.079v-7.715l6.414-11.71h-4.501l-3.91 7.631-3.883-7.631h-4.613l6.414 11.766z" fill="url(#a)"/><path d="M0 7.36h7.314c1.107 0 2.1.144 2.982.43.881.288 1.603.708 2.166 1.263.431.445.76.935.985 1.471.225.537.337 1.147.337 1.832v.083c0 .574-.075 1.082-.225 1.526a4.54 4.54 0 0 1-.59 1.18 4.258 4.258 0 0 1-.844.888c-.32.25-.657.467-1.013.652 1.069.407 1.922.962 2.56 1.665.637.703.956 1.692.956 2.969v.139c0 .87-.169 1.637-.506 2.303a4.516 4.516 0 0 1-1.449 1.665c-.628.444-1.378.782-2.25 1.013-.872.231-1.843.347-2.912.347H0V7.36zm9.762 5.717c0-.703-.24-1.24-.718-1.61-.478-.37-1.158-.554-2.04-.554H3.967v4.384h2.842c.9 0 1.617-.18 2.152-.54.534-.362.802-.912.802-1.652v-.028zm.843 7.853c0-.703-.257-1.253-.773-1.65-.516-.398-1.28-.597-2.293-.597H3.966v4.55h3.658c.918 0 1.645-.189 2.18-.568.534-.38.801-.948.801-1.707v-.027zm6.246 2.609l5.795-5.883c.525-.518.965-.985 1.322-1.401.356-.417.647-.8.872-1.152.225-.352.389-.69.492-1.013a3.32 3.32 0 0 0 .155-1.013c0-.74-.225-1.309-.675-1.706-.45-.398-1.013-.597-1.688-.597-.694 0-1.308.19-1.843.569-.534.38-1.12.957-1.758 1.734l-2.644-2.47c.862-1.165 1.814-2.044 2.855-2.636 1.04-.592 2.274-.888 3.7-.888.9 0 1.73.13 2.489.389.76.259 1.416.633 1.969 1.124.553.49.98 1.082 1.28 1.776.3.693.45 1.484.45 2.372v.056c0 .684-.08 1.304-.239 1.859a6.346 6.346 0 0 1-.76 1.651c-.347.546-.783 1.1-1.308 1.665a48.729 48.729 0 0 1-1.884 1.901l-3.292 3.302h7.511v3.608h-12.8v-3.247zM32.913 7.361h7.315c1.106 0 2.1.143 2.981.43.882.287 1.604.707 2.167 1.262.43.445.76.935.984 1.471.225.537.338 1.147.338 1.832v.083c0 .574-.075 1.082-.225 1.526-.15.444-.347.837-.591 1.18a4.258 4.258 0 0 1-.844.888c-.319.25-.656.467-1.013.652 1.07.407 1.923.962 2.56 1.665.638.703.957 1.692.957 2.969v.139c0 .87-.17 1.637-.507 2.303a4.516 4.516 0 0 1-1.448 1.665c-.629.444-1.379.782-2.251 1.013-.872.231-1.843.347-2.912.347h-7.51V7.36zm9.762 5.716c0-.703-.24-1.24-.717-1.61-.479-.37-1.158-.554-2.04-.554H36.88v4.384h2.841c.9 0 1.618-.18 2.152-.54.535-.362.802-.912.802-1.652v-.028zm.844 7.853c0-.703-.258-1.253-.774-1.65-.515-.398-1.28-.597-2.292-.597H36.88v4.55h3.657c.919 0 1.646-.189 2.18-.568.535-.38.802-.948.802-1.707v-.027zM52.574 7h2.25v2.359h-2.25V7zm.112 5.328h2.026v14.458h-2.026V12.328zm6.358 0h2.025v2.359a6.134 6.134 0 0 1 1.646-1.86c.685-.518 1.58-.777 2.687-.777 1.5 0 2.672.472 3.516 1.416.844.943 1.266 2.229 1.266 3.857v9.463h-2.026v-8.908c0-1.295-.295-2.29-.886-2.983-.59-.694-1.42-1.04-2.49-1.04-.543 0-1.04.101-1.49.304-.45.204-.84.486-1.168.847-.328.36-.586.795-.773 1.304a4.82 4.82 0 0 0-.282 1.679v8.797h-2.025V12.328z" fill="#03101F" opacity=".8"/></g></svg>